<svg width="15" height="19" viewBox="0 0 15 19" fill="none" xmlns="http://www.w3.org/2000/svg">
<path d="M3.98685 13.046C3.72529 12.8947 3.40075 12.7624 3.05722 12.6224C2.84717 12.5369 2.6304 12.4483 2.41456 12.3501L0.0697196 16.6165C-0.0968572 16.9197 0.0454376 17.1182 0.386014 17.0576L1.46071 16.8661C1.80129 16.8055 2.18495 17.0188 2.31316 17.3401L2.70733 18.3278C2.83554 18.6491 3.07684 18.664 3.24342 18.3608L5.53819 14.1853C5.26405 14.0016 5.01173 13.8028 4.77847 13.6188C4.49746 13.3972 4.23212 13.1879 3.98685 13.046Z" fill="white"/>
<path d="M14.9303 16.6165L12.5854 12.35C12.3696 12.4483 12.1528 12.5368 11.9428 12.6224C11.5992 12.7624 11.2748 12.8947 11.0131 13.0459C10.7678 13.1879 10.5024 13.3972 10.2215 13.6188C9.98819 13.8027 9.73594 14.0014 9.46179 14.1852L11.7566 18.3607C11.9232 18.6639 12.1645 18.6491 12.2927 18.3277L12.6869 17.3401C12.8151 17.0187 13.1988 16.8054 13.5393 16.8661L14.614 17.0575C14.9546 17.1181 15.0969 16.9197 14.9303 16.6165Z" fill="white"/>
<path d="M4.45941 12.2292C5.41867 12.7842 6.31194 13.9234 7.49993 13.9234C8.68793 13.9234 9.5812 12.7843 10.5405 12.2292C11.5302 11.6565 12.9571 11.433 13.5298 10.4433C14.0848 9.48393 13.581 8.14955 13.581 6.96156C13.581 5.77357 14.0848 4.43926 13.5298 3.47993C12.9571 2.49028 11.5302 2.26671 10.5405 1.69408C9.5812 1.13911 8.68793 0 7.49993 0C6.31194 0 5.41867 1.13911 4.45941 1.6942C3.4697 2.26671 2.04278 2.49035 1.47021 3.47999C0.91512 4.43932 1.419 5.77363 1.419 6.96162C1.419 8.14962 0.91512 9.48399 1.47015 10.4433C2.04278 11.433 3.46963 11.6566 4.45941 12.2292ZM7.49993 1.95268C10.2619 1.95268 12.509 4.19971 12.509 6.96162C12.509 9.7236 10.2619 11.9707 7.49993 11.9707C4.73802 11.9707 2.49099 9.7236 2.49099 6.96162C2.49099 4.19971 4.73802 1.95268 7.49993 1.95268Z" fill="white"/>
<path d="M7.50003 11.0271C9.74184 11.0271 11.5655 9.20341 11.5655 6.96161C11.5655 4.72006 9.74184 2.89627 7.50003 2.89627C5.25836 2.89627 3.43469 4.72006 3.43469 6.96161C3.43469 9.20341 5.25836 11.0271 7.50003 11.0271Z" fill="white"/>
</svg>
